<svg width="16" height="17" viewBox="0 0 16 17" fill="none" xmlns="http://www.w3.org/2000/svg">
<rect width="16" height="16" rx="8" transform="matrix(1 0 0 -1 0 16.5)" fill="#EBF9F2"/>
<path d="M8.29631 10.8703V6.12955C8.29631 5.96591 8.16365 5.83325 8.00001 5.83325C7.83637 5.83325 7.70372 5.96591 7.70372 6.12955V10.8703C7.70372 11.0339 7.83637 11.1666 8.00001 11.1666C8.16365 11.1666 8.29631 11.0339 8.29631 10.8703Z" fill="#19AA5C"/>
<path d="M7.99738 6.5795L9.85124 8.69519C9.95908 8.81826 10.1463 8.83061 10.2694 8.72277C10.3924 8.61492 10.4048 8.42772 10.2969 8.30465L8.21991 5.93428C8.10176 5.79945 7.89189 5.7996 7.77394 5.93459L5.70282 8.30496C5.59515 8.42819 5.60776 8.61537 5.73098 8.72304C5.85421 8.83071 6.04139 8.8181 6.14906 8.69487L7.99738 6.5795Z" fill="#19AA5C"/>
<path d="M8.29631 10.8703V6.12955C8.29631 5.96591 8.16365 5.83325 8.00001 5.83325C7.83637 5.83325 7.70372 5.96591 7.70372 6.12955V10.8703C7.70372 11.0339 7.83637 11.1666 8.00001 11.1666C8.16365 11.1666 8.29631 11.0339 8.29631 10.8703Z" stroke="#19AA5C"/>
<path d="M7.99738 6.5795L9.85124 8.69519C9.95908 8.81826 10.1463 8.83061 10.2694 8.72277C10.3924 8.61492 10.4048 8.42772 10.2969 8.30465L8.21991 5.93428C8.10176 5.79945 7.89189 5.7996 7.77394 5.93459L5.70282 8.30496C5.59515 8.42819 5.60776 8.61537 5.73098 8.72304C5.85421 8.83071 6.04139 8.8181 6.14906 8.69487L7.99738 6.5795Z" stroke="#19AA5C"/>
</svg>
