<svg width="16" height="16" viewBox="0 0 16 16" fill="none" xmlns="http://www.w3.org/2000/svg">
<path fill-rule="evenodd" clip-rule="evenodd" d="M2.33334 2.66669C1.78106 2.66669 1.33334 3.1144 1.33334 3.66669V4.33335C1.33334 4.88564 1.78106 5.33335 2.33334 5.33335H13C13.5523 5.33335 14 4.88564 14 4.33335V3.66669C14 3.1144 13.5523 2.66669 13 2.66669H2.33334ZM7 6.6667C6.44772 6.6667 6 7.11441 6 7.6667V12.3334C6 12.8856 6.44772 13.3334 7 13.3334H13C13.5523 13.3334 14 12.8856 14 12.3334V7.6667C14 7.11441 13.5523 6.6667 13 6.6667H7Z" fill="#1E1E1E"/>
<rect opacity="0.4" x="1.33334" y="6.66669" width="3.33333" height="6.66667" rx="1" fill="#1E1E1E"/>
</svg>
